<svg xmlns="http://www.w3.org/2000/svg" xmlns:xlink="http://www.w3.org/1999/xlink" width="500" zoomAndPan="magnify" viewBox="0 0 375 374.999991" height="500" preserveAspectRatio="xMidYMid meet" version="1.0"><defs><g/><clipPath id="e117c7c23f"><path d="M 89.046875 115.777344 L 117 115.777344 L 117 237 L 89.046875 237 Z M 89.046875 115.777344 " clip-rule="nonzero"/></clipPath><clipPath id="c3fe5986fc"><path d="M 89.046875 143 L 117 143 L 117 171 L 89.046875 171 Z M 89.046875 143 " clip-rule="nonzero"/></clipPath><clipPath id="332e62d27a"><path d="M 89.046875 170 L 117 170 L 117 198 L 89.046875 198 Z M 89.046875 170 " clip-rule="nonzero"/></clipPath><clipPath id="d656c6bef5"><path d="M 89.046875 197 L 117 197 L 117 225 L 89.046875 225 Z M 89.046875 197 " clip-rule="nonzero"/></clipPath><clipPath id="41c8351218"><path d="M 89.046875 224 L 117 224 L 117 252.195312 L 89.046875 252.195312 Z M 89.046875 224 " clip-rule="nonzero"/></clipPath><clipPath id="612c906433"><path d="M 143 186 L 171 186 L 171 252.195312 L 143 252.195312 Z M 143 186 " clip-rule="nonzero"/></clipPath><clipPath id="aec8d532a5"><path d="M 143 115.777344 L 171 115.777344 L 171 144 L 143 144 Z M 143 115.777344 " clip-rule="nonzero"/></clipPath><clipPath id="90c9e069f7"><path d="M 151.515625 115.777344 L 277.019531 115.777344 L 277.019531 250.832031 L 151.515625 250.832031 Z M 151.515625 115.777344 " clip-rule="nonzero"/></clipPath></defs><rect x="-37.5" width="450" fill="#ffffff" y="-37.499999" height="449.999989" fill-opacity="1"/><rect x="-37.5" width="450" fill="#ffffff" y="-37.499999" height="449.999989" fill-opacity="1"/><g clip-path="url(#e117c7c23f)"><path fill="#000000" d="M 89.292969 115.78125 L 116.515625 115.78125 L 116.515625 236.957031 L 89.292969 236.957031 Z M 89.292969 115.78125 " fill-opacity="1" fill-rule="nonzero"/></g><g clip-path="url(#c3fe5986fc)"><path fill="#000000" d="M 89.292969 143.0625 L 116.515625 143.0625 L 116.515625 170.339844 L 89.292969 170.339844 Z M 89.292969 143.0625 " fill-opacity="1" fill-rule="nonzero"/></g><g clip-path="url(#332e62d27a)"><path fill="#000000" d="M 89.292969 170.339844 L 116.515625 170.339844 L 116.515625 197.621094 L 89.292969 197.621094 Z M 89.292969 170.339844 " fill-opacity="1" fill-rule="nonzero"/></g><g clip-path="url(#d656c6bef5)"><path fill="#000000" d="M 89.292969 197.617188 L 116.515625 197.617188 L 116.515625 224.894531 L 89.292969 224.894531 Z M 89.292969 197.617188 " fill-opacity="1" fill-rule="nonzero"/></g><g clip-path="url(#41c8351218)"><path fill="#000000" d="M 89.292969 224.894531 L 116.515625 224.894531 L 116.515625 252.175781 L 89.292969 252.175781 Z M 89.292969 224.894531 " fill-opacity="1" fill-rule="nonzero"/></g><path fill="#000000" d="M 116.515625 170.339844 L 143.738281 170.339844 L 143.738281 197.621094 L 116.515625 197.621094 Z M 116.515625 170.339844 " fill-opacity="1" fill-rule="nonzero"/><path fill="#000000" d="M 110.617188 170.339844 L 170.960938 170.339844 L 170.960938 197.621094 L 110.617188 197.621094 Z M 110.617188 170.339844 " fill-opacity="1" fill-rule="nonzero"/><path fill="#000000" d="M 143.738281 197.617188 L 170.960938 197.617188 L 170.960938 224.894531 L 143.738281 224.894531 Z M 143.738281 197.617188 " fill-opacity="1" fill-rule="nonzero"/><g clip-path="url(#612c906433)"><path fill="#000000" d="M 143.738281 186.308594 L 170.960938 186.308594 L 170.960938 252.175781 L 143.738281 252.175781 Z M 143.738281 186.308594 " fill-opacity="1" fill-rule="nonzero"/></g><g clip-path="url(#aec8d532a5)"><path fill="#000000" d="M 143.738281 115.78125 L 170.960938 115.78125 L 170.960938 143.0625 L 143.738281 143.0625 Z M 143.738281 115.78125 " fill-opacity="1" fill-rule="nonzero"/></g><g clip-path="url(#90c9e069f7)"><path fill="#0a0c06" d="M 242.191406 250.835938 L 277.007812 250.835938 L 243.929688 202.601562 C 249.699219 200.480469 254.761719 197.550781 259.117188 193.757812 C 263.4375 189.996094 266.820312 185.363281 269.238281 179.863281 C 271.6875 174.367188 272.910156 168 272.945312 160.730469 L 272.945312 160.347656 C 272.945312 153.945312 271.945312 148.160156 269.976562 142.949219 C 268.011719 137.742188 265.109375 133.269531 261.339844 129.476562 C 256.890625 125.007812 251.351562 121.617188 244.738281 119.28125 C 238.136719 116.953125 230.488281 115.777344 221.882812 115.777344 L 151.53125 115.777344 L 169.53125 142.597656 L 219.371094 142.597656 C 224.238281 142.597656 228.394531 143.335938 231.878906 144.78125 C 235.359375 146.230469 238.066406 148.351562 239.933594 151.214844 C 241.804688 154.078125 242.738281 157.644531 242.769531 161.890625 L 242.769531 162.277344 C 242.769531 166.101562 241.871094 169.449219 240.0625 172.277344 C 238.289062 175.140625 235.710938 177.359375 232.328125 178.964844 C 228.910156 180.542969 224.78125 181.34375 219.949219 181.378906 L 195.566406 181.378906 Z M 242.191406 250.835938 " fill-opacity="1" fill-rule="nonzero"/></g><g fill="#000000" fill-opacity="1"><g transform="translate(96.686348, 296.273976)"><g><path d="M 4.4375 0 L 1.859375 0 L 1.859375 -14.28125 L 5.546875 -14.28125 L 9.15625 -3.78125 L 9.359375 -3.78125 L 12.953125 -14.28125 L 16.5625 -14.28125 L 16.5625 0 L 13.890625 0 L 13.890625 -9.4375 L 13.640625 -9.46875 L 10.34375 0 L 7.984375 0 L 4.6875 -9.46875 L 4.4375 -9.4375 Z M 4.4375 0 "/></g></g></g><g fill="#000000" fill-opacity="1"><g transform="translate(118.926888, 296.273976)"><g><path d="M 13.703125 0 L 10.734375 0 L 9.65625 -3.296875 L 4.1875 -3.296875 L 3.109375 0 L 0.21875 0 L 5.140625 -14.28125 L 8.765625 -14.28125 Z M 6.78125 -11.296875 L 4.953125 -5.671875 L 8.875 -5.671875 L 7.03125 -11.296875 Z M 6.78125 -11.296875 "/></g></g></g><g fill="#000000" fill-opacity="1"><g transform="translate(136.657471, 296.273976)"><g><path d="M 4.59375 0 L 1.859375 0 L 1.859375 -14.28125 L 5.09375 -14.28125 L 10.828125 -5.078125 L 11.078125 -5.125 L 11.078125 -14.28125 L 13.796875 -14.28125 L 13.796875 0 L 10.90625 0 L 4.828125 -9.828125 L 4.59375 -9.78125 Z M 4.59375 0 "/></g></g></g><g fill="#000000" fill-opacity="1"><g transform="translate(156.125658, 296.273976)"><g><path d="M 13.703125 0 L 10.734375 0 L 9.65625 -3.296875 L 4.1875 -3.296875 L 3.109375 0 L 0.21875 0 L 5.140625 -14.28125 L 8.765625 -14.28125 Z M 6.78125 -11.296875 L 4.953125 -5.671875 L 8.875 -5.671875 L 7.03125 -11.296875 Z M 6.78125 -11.296875 "/></g></g></g><g fill="#000000" fill-opacity="1"><g transform="translate(173.85624, 296.273976)"><g><path d="M 6.9375 0.203125 C 5.738281 0.203125 4.707031 -0.0664062 3.84375 -0.609375 C 2.976562 -1.148438 2.304688 -1.96875 1.828125 -3.0625 C 1.359375 -4.164062 1.125 -5.523438 1.125 -7.140625 C 1.125 -8.765625 1.40625 -10.125 1.96875 -11.21875 C 2.539062 -12.320312 3.328125 -13.140625 4.328125 -13.671875 C 5.335938 -14.210938 6.503906 -14.484375 7.828125 -14.484375 C 9.203125 -14.484375 10.367188 -14.226562 11.328125 -13.71875 C 12.296875 -13.207031 12.972656 -12.453125 13.359375 -11.453125 L 11.296875 -10.203125 L 11.0625 -10.21875 C 10.757812 -10.851562 10.34375 -11.316406 9.8125 -11.609375 C 9.289062 -11.898438 8.628906 -12.046875 7.828125 -12.046875 C 6.597656 -12.046875 5.65625 -11.65625 5 -10.875 C 4.351562 -10.101562 4.03125 -8.859375 4.03125 -7.140625 C 4.03125 -5.410156 4.332031 -4.15625 4.9375 -3.375 C 5.550781 -2.59375 6.453125 -2.203125 7.640625 -2.203125 C 8.671875 -2.203125 9.429688 -2.429688 9.921875 -2.890625 C 10.410156 -3.359375 10.65625 -4.050781 10.65625 -4.96875 L 10.65625 -5.59375 L 7.28125 -5.59375 L 7.28125 -7.875 L 13.453125 -7.875 L 13.453125 0 L 10.765625 0 L 10.765625 -1.921875 L 10.5625 -1.9375 C 10.269531 -1.257812 9.820312 -0.734375 9.21875 -0.359375 C 8.625 0.015625 7.863281 0.203125 6.9375 0.203125 Z M 6.9375 0.203125 "/></g></g></g><g fill="#000000" fill-opacity="1"><g transform="translate(192.563003, 296.273976)"><g><path d="M 4.671875 -6.265625 L 4.671875 -2.359375 L 11.5 -2.359375 L 11.5 0 L 1.859375 0 L 1.859375 -14.28125 L 11.34375 -14.28125 L 11.34375 -11.921875 L 4.671875 -11.921875 L 4.671875 -8.578125 L 10.5 -8.578125 L 10.5 -6.265625 Z M 4.671875 -6.265625 "/></g></g></g><g fill="#000000" fill-opacity="1"><g transform="translate(208.653607, 296.273976)"><g><path d="M 4.4375 0 L 1.859375 0 L 1.859375 -14.28125 L 5.546875 -14.28125 L 9.15625 -3.78125 L 9.359375 -3.78125 L 12.953125 -14.28125 L 16.5625 -14.28125 L 16.5625 0 L 13.890625 0 L 13.890625 -9.4375 L 13.640625 -9.46875 L 10.34375 0 L 7.984375 0 L 4.6875 -9.46875 L 4.4375 -9.4375 Z M 4.4375 0 "/></g></g></g><g fill="#000000" fill-opacity="1"><g transform="translate(230.894145, 296.273976)"><g><path d="M 4.671875 -6.265625 L 4.671875 -2.359375 L 11.5 -2.359375 L 11.5 0 L 1.859375 0 L 1.859375 -14.28125 L 11.34375 -14.28125 L 11.34375 -11.921875 L 4.671875 -11.921875 L 4.671875 -8.578125 L 10.5 -8.578125 L 10.5 -6.265625 Z M 4.671875 -6.265625 "/></g></g></g><g fill="#000000" fill-opacity="1"><g transform="translate(246.984743, 296.273976)"><g><path d="M 4.59375 0 L 1.859375 0 L 1.859375 -14.28125 L 5.09375 -14.28125 L 10.828125 -5.078125 L 11.078125 -5.125 L 11.078125 -14.28125 L 13.796875 -14.28125 L 13.796875 0 L 10.90625 0 L 4.828125 -9.828125 L 4.59375 -9.78125 Z M 4.59375 0 "/></g></g></g><g fill="#000000" fill-opacity="1"><g transform="translate(266.452928, 296.273976)"><g><path d="M 11.453125 -14.28125 L 11.453125 -11.90625 L 7.328125 -11.90625 L 7.328125 0 L 4.515625 0 L 4.515625 -11.90625 L 0.390625 -11.90625 L 0.390625 -14.28125 Z M 11.453125 -14.28125 "/></g></g></g></svg>